<mxfile host="app.diagrams.net" modified="2023-08-11T02:08:50.648Z" agent="Mozilla/5.0 (X11; Ubuntu; Linux x86_64; rv:109.0) Gecko/20100101 Firefox/115.0" etag="DA1THulOo4HZb-4Gxi78" version="21.6.8" type="github">
  <diagram name="Page-1" id="xGCaPTdYt3ANk5ll7IMg">
    <mxGraphModel dx="954" dy="1202" grid="1" gridSize="10" guides="1" tooltips="1" connect="1" arrows="1" fold="1" page="1" pageScale="1" pageWidth="850" pageHeight="1100" math="0" shadow="0">
      <root>
        <mxCell id="0" />
        <mxCell id="1" parent="0" />
        <mxCell id="NJpbwfQp-PH1KBnhUSNM-18" value="" style="rounded=0;whiteSpace=wrap;html=1;" vertex="1" parent="1">
          <mxGeometry y="1410" width="690" height="440" as="geometry" />
        </mxCell>
        <mxCell id="NJpbwfQp-PH1KBnhUSNM-15" value="" style="whiteSpace=wrap;html=1;" vertex="1" parent="1">
          <mxGeometry y="1110" width="830" height="170" as="geometry" />
        </mxCell>
        <mxCell id="NJpbwfQp-PH1KBnhUSNM-1" value="OnRamp" style="rounded=1;whiteSpace=wrap;html=1;" vertex="1" parent="1">
          <mxGeometry x="440" y="1180" width="120" height="60" as="geometry" />
        </mxCell>
        <mxCell id="NJpbwfQp-PH1KBnhUSNM-7" style="edgeStyle=orthogonalEdgeStyle;rounded=0;orthogonalLoop=1;jettySize=auto;html=1;" edge="1" parent="1" source="NJpbwfQp-PH1KBnhUSNM-2" target="NJpbwfQp-PH1KBnhUSNM-1">
          <mxGeometry relative="1" as="geometry" />
        </mxCell>
        <mxCell id="NJpbwfQp-PH1KBnhUSNM-2" value="Router" style="rounded=1;whiteSpace=wrap;html=1;" vertex="1" parent="1">
          <mxGeometry x="230" y="1180" width="120" height="60" as="geometry" />
        </mxCell>
        <mxCell id="NJpbwfQp-PH1KBnhUSNM-6" style="edgeStyle=orthogonalEdgeStyle;rounded=0;orthogonalLoop=1;jettySize=auto;html=1;" edge="1" parent="1" source="NJpbwfQp-PH1KBnhUSNM-4" target="NJpbwfQp-PH1KBnhUSNM-2">
          <mxGeometry relative="1" as="geometry" />
        </mxCell>
        <mxCell id="NJpbwfQp-PH1KBnhUSNM-4" value="User" style="rounded=1;whiteSpace=wrap;html=1;" vertex="1" parent="1">
          <mxGeometry x="30" y="1180" width="120" height="60" as="geometry" />
        </mxCell>
        <mxCell id="NJpbwfQp-PH1KBnhUSNM-8" value="CCIP SEND" style="text;html=1;align=center;verticalAlign=middle;resizable=0;points=[];autosize=1;strokeColor=none;fillColor=none;" vertex="1" parent="1">
          <mxGeometry x="346" y="1178" width="90" height="30" as="geometry" />
        </mxCell>
        <mxCell id="NJpbwfQp-PH1KBnhUSNM-11" value="CCIPSendRequested&lt;br&gt;EVENT" style="text;html=1;align=center;verticalAlign=middle;resizable=0;points=[];autosize=1;strokeColor=none;fillColor=none;" vertex="1" parent="1">
          <mxGeometry x="500" y="1330" width="140" height="40" as="geometry" />
        </mxCell>
        <mxCell id="NJpbwfQp-PH1KBnhUSNM-14" style="edgeStyle=orthogonalEdgeStyle;rounded=0;orthogonalLoop=1;jettySize=auto;html=1;dashed=1;" edge="1" parent="1" source="NJpbwfQp-PH1KBnhUSNM-12" target="NJpbwfQp-PH1KBnhUSNM-1">
          <mxGeometry relative="1" as="geometry" />
        </mxCell>
        <mxCell id="NJpbwfQp-PH1KBnhUSNM-20" style="edgeStyle=orthogonalEdgeStyle;rounded=0;orthogonalLoop=1;jettySize=auto;html=1;" edge="1" parent="1" source="NJpbwfQp-PH1KBnhUSNM-12" target="NJpbwfQp-PH1KBnhUSNM-19">
          <mxGeometry relative="1" as="geometry" />
        </mxCell>
        <mxCell id="NJpbwfQp-PH1KBnhUSNM-29" style="edgeStyle=orthogonalEdgeStyle;rounded=0;orthogonalLoop=1;jettySize=auto;html=1;" edge="1" parent="1" source="NJpbwfQp-PH1KBnhUSNM-12" target="NJpbwfQp-PH1KBnhUSNM-21">
          <mxGeometry relative="1" as="geometry" />
        </mxCell>
        <mxCell id="NJpbwfQp-PH1KBnhUSNM-12" value="CCIP Listner" style="rounded=1;whiteSpace=wrap;html=1;" vertex="1" parent="1">
          <mxGeometry x="440" y="1440" width="120" height="60" as="geometry" />
        </mxCell>
        <mxCell id="NJpbwfQp-PH1KBnhUSNM-16" value="&lt;font style=&quot;font-size: 27px;&quot;&gt;CCIP&lt;/font&gt;" style="text;html=1;align=center;verticalAlign=middle;resizable=0;points=[];autosize=1;strokeColor=none;fillColor=none;" vertex="1" parent="1">
          <mxGeometry x="455" y="1120" width="90" height="50" as="geometry" />
        </mxCell>
        <mxCell id="NJpbwfQp-PH1KBnhUSNM-19" value="" style="shape=cylinder3;whiteSpace=wrap;html=1;boundedLbl=1;backgroundOutline=1;size=15;" vertex="1" parent="1">
          <mxGeometry x="600" y="1430" width="60" height="80" as="geometry" />
        </mxCell>
        <mxCell id="NJpbwfQp-PH1KBnhUSNM-24" style="edgeStyle=orthogonalEdgeStyle;rounded=0;orthogonalLoop=1;jettySize=auto;html=1;" edge="1" parent="1" source="NJpbwfQp-PH1KBnhUSNM-21" target="NJpbwfQp-PH1KBnhUSNM-22">
          <mxGeometry relative="1" as="geometry" />
        </mxCell>
        <mxCell id="NJpbwfQp-PH1KBnhUSNM-26" style="edgeStyle=orthogonalEdgeStyle;rounded=0;orthogonalLoop=1;jettySize=auto;html=1;" edge="1" parent="1" source="NJpbwfQp-PH1KBnhUSNM-21" target="NJpbwfQp-PH1KBnhUSNM-25">
          <mxGeometry relative="1" as="geometry" />
        </mxCell>
        <mxCell id="NJpbwfQp-PH1KBnhUSNM-32" value="" style="edgeStyle=orthogonalEdgeStyle;rounded=0;orthogonalLoop=1;jettySize=auto;html=1;" edge="1" parent="1" source="NJpbwfQp-PH1KBnhUSNM-21" target="NJpbwfQp-PH1KBnhUSNM-31">
          <mxGeometry relative="1" as="geometry" />
        </mxCell>
        <mxCell id="NJpbwfQp-PH1KBnhUSNM-21" value="ReceiverChecker" style="rounded=1;whiteSpace=wrap;html=1;" vertex="1" parent="1">
          <mxGeometry x="440" y="1560" width="120" height="60" as="geometry" />
        </mxCell>
        <mxCell id="NJpbwfQp-PH1KBnhUSNM-22" value="" style="shape=cylinder3;whiteSpace=wrap;html=1;boundedLbl=1;backgroundOutline=1;size=15;" vertex="1" parent="1">
          <mxGeometry x="270" y="1550" width="60" height="80" as="geometry" />
        </mxCell>
        <mxCell id="NJpbwfQp-PH1KBnhUSNM-25" value="EtherScanner" style="rounded=1;whiteSpace=wrap;html=1;" vertex="1" parent="1">
          <mxGeometry x="700" y="1560" width="120" height="60" as="geometry" />
        </mxCell>
        <mxCell id="NJpbwfQp-PH1KBnhUSNM-27" value="LookUp receiver" style="text;html=1;align=center;verticalAlign=middle;resizable=0;points=[];autosize=1;strokeColor=none;fillColor=none;" vertex="1" parent="1">
          <mxGeometry x="330" y="1550" width="110" height="30" as="geometry" />
        </mxCell>
        <mxCell id="NJpbwfQp-PH1KBnhUSNM-28" value="Fetch ABI " style="text;html=1;align=center;verticalAlign=middle;resizable=0;points=[];autosize=1;strokeColor=none;fillColor=none;" vertex="1" parent="1">
          <mxGeometry x="590" y="1550" width="80" height="30" as="geometry" />
        </mxCell>
        <mxCell id="NJpbwfQp-PH1KBnhUSNM-30" value="Some kind of Queue" style="text;html=1;align=center;verticalAlign=middle;resizable=0;points=[];autosize=1;strokeColor=none;fillColor=none;" vertex="1" parent="1">
          <mxGeometry x="500" y="1510" width="130" height="30" as="geometry" />
        </mxCell>
        <mxCell id="NJpbwfQp-PH1KBnhUSNM-38" value="" style="edgeStyle=orthogonalEdgeStyle;rounded=0;orthogonalLoop=1;jettySize=auto;html=1;" edge="1" parent="1" source="NJpbwfQp-PH1KBnhUSNM-31" target="NJpbwfQp-PH1KBnhUSNM-35">
          <mxGeometry relative="1" as="geometry" />
        </mxCell>
        <mxCell id="NJpbwfQp-PH1KBnhUSNM-40" value="" style="edgeStyle=orthogonalEdgeStyle;rounded=0;orthogonalLoop=1;jettySize=auto;html=1;" edge="1" parent="1" source="NJpbwfQp-PH1KBnhUSNM-31" target="NJpbwfQp-PH1KBnhUSNM-39">
          <mxGeometry relative="1" as="geometry" />
        </mxCell>
        <mxCell id="NJpbwfQp-PH1KBnhUSNM-31" value="Calculate risk" style="whiteSpace=wrap;html=1;rounded=1;" vertex="1" parent="1">
          <mxGeometry x="440" y="1670" width="120" height="60" as="geometry" />
        </mxCell>
        <mxCell id="NJpbwfQp-PH1KBnhUSNM-35" value="" style="shape=cylinder3;whiteSpace=wrap;html=1;boundedLbl=1;backgroundOutline=1;size=15;" vertex="1" parent="1">
          <mxGeometry x="270" y="1660" width="60" height="80" as="geometry" />
        </mxCell>
        <mxCell id="NJpbwfQp-PH1KBnhUSNM-39" value="If accaptable, execute" style="whiteSpace=wrap;html=1;rounded=1;" vertex="1" parent="1">
          <mxGeometry x="440" y="1780" width="120" height="60" as="geometry" />
        </mxCell>
      </root>
    </mxGraphModel>
  </diagram>
</mxfile>
